<svg width="48" height="48" viewBox="0 0 48 48" fill="none" xmlns="http://www.w3.org/2000/svg">
<rect width="48" height="48" fill="#14345B"/>
<path fill-rule="evenodd" clip-rule="evenodd" d="M17.8428 33.6596C18.4927 34.0044 19.2165 34.1844 19.9513 34.1841C22.3987 34.1841 24.3966 32.2266 24.4868 29.7869L24.4958 8H29.9018C29.9023 8.46275 29.9451 8.92447 30.0296 9.37934H26.0714V9.3801H31.478C31.4773 11.2035 32.1346 12.9652 33.328 14.3382L33.3295 14.3399C34.5468 15.1396 35.9696 15.5647 37.4237 15.5633V16.774C37.9326 16.8836 38.4588 16.942 39 16.942V22.3792C36.301 22.3824 33.6694 21.5314 31.4781 19.947V30.9947C31.4781 36.5112 27.014 41 21.5268 41C20.1603 41.0003 18.8085 40.7169 17.5561 40.1674C16.3045 39.6183 15.1792 38.8154 14.2504 37.8089L14.2484 37.8075C11.6822 35.9958 10 32.9998 10 29.6153C10 24.0979 14.4641 19.6084 19.9513 19.6084C20.4 19.6106 20.848 19.6434 21.2923 19.7067V20.9938C21.3235 20.9932 21.3546 20.9921 21.3857 20.9911C21.4325 20.9894 21.4794 20.9878 21.5268 20.9878C21.9755 20.9899 22.4235 21.0228 22.8677 21.086V26.6359C22.4438 26.5021 21.9951 26.4242 21.5268 26.4242C20.3218 26.4257 19.1665 26.9077 18.3145 27.7645C17.4625 28.6214 16.9834 29.783 16.9822 30.9946C16.9823 31.9516 17.2831 32.8841 17.8417 33.659L17.8428 33.6596ZM12.2319 34.5648C12.6937 35.7747 13.383 36.8723 14.2462 37.8051C13.3654 36.8573 12.6853 35.7551 12.2319 34.5648Z" fill="#E6EEF5"/>
</svg>
