<svg width="48" height="48" viewBox="0 0 48 48" fill="none" xmlns="http://www.w3.org/2000/svg">
<rect width="48" height="48" fill="#14345B"/>
<path d="M24.791 8.80078C28.6086 8.80245 32.1914 10.289 34.8857 12.9863C37.58 15.6836 39.0639 19.269 39.0625 23.082C39.0593 30.9488 32.6594 37.3503 24.791 37.3535H24.7852C22.3968 37.3527 20.0502 36.7531 17.9658 35.6162L10.4004 37.6006L12.4248 30.2061C11.1759 28.0417 10.5185 25.5865 10.5195 23.0713C10.5227 15.2027 16.9249 8.80078 24.791 8.80078ZM24.8662 11.2705C18.3236 11.2707 13.0027 16.5911 13 23.1309C12.9991 25.372 13.6262 27.5549 14.8135 29.4434L15.0957 29.8926L13.8975 34.2695L18.3867 33.0918L18.8203 33.3486C20.6414 34.4293 22.729 35.0011 24.8574 35.002H24.8623C31.3999 35.0017 36.721 29.6809 36.7236 23.1406C36.7248 19.9713 35.4923 16.9911 33.2529 14.749C31.0134 12.5069 28.0344 11.2716 24.8662 11.2705Z" fill="#F7F9FA"/>
<path d="M32.4413 25.9954C32.3522 25.8466 32.1145 25.7574 31.7579 25.5788C31.4013 25.4004 29.6482 24.5378 29.3212 24.4187C28.9944 24.2998 28.7566 24.2403 28.5189 24.5972C28.2813 24.9541 27.5979 25.7574 27.3899 25.9954C27.1818 26.2333 26.9738 26.2632 26.6174 26.0846C26.2608 25.9061 25.1118 25.5296 23.7497 24.3147C22.6897 23.3692 21.974 22.2015 21.766 21.8445C21.558 21.4875 21.7438 21.2946 21.9223 21.1168C22.0828 20.9569 22.279 20.7002 22.4572 20.492C22.6355 20.2839 22.6949 20.135 22.8138 19.8972C22.9327 19.6591 22.8733 19.451 22.7841 19.2725C22.6949 19.094 21.9818 17.3388 21.6847 16.6248C21.3952 15.9294 21.1012 16.0236 20.8824 16.0126C20.6746 16.0022 20.4366 16 20.1989 16C19.9612 16 19.5749 16.0893 19.248 16.4463C18.9212 16.8033 18 17.666 18 19.421C18 21.1671 19.2645 22.8542 19.4532 23.1059L19.456 23.1098C19.6343 23.3479 21.9705 26.9495 25.5476 28.4941C26.3984 28.8616 27.0625 29.081 27.5804 29.2453C28.4346 29.5167 29.2121 29.4784 29.8264 29.3866C30.5116 29.2842 31.9361 28.524 32.2334 27.6911C32.5304 26.858 32.5304 26.1441 32.4413 25.9954Z" fill="#F7F9FA"/>
</svg>
