<svg width="24" height="24" viewBox="0 0 24 24" fill="none" xmlns="http://www.w3.org/2000/svg">
<path d="M11.2188 1.30566C12.2623 1.15592 13.3272 1.30891 14.2861 1.74707C15.2449 2.18521 16.0572 2.8904 16.627 3.77734C17.1967 4.66432 17.5002 5.69669 17.5 6.75098C17.4979 8.07274 17.0205 9.34947 16.1553 10.3486C15.3372 11.293 14.2241 11.9293 13 12.1572V21.751C12.9999 22.0161 12.8944 22.2706 12.707 22.458C12.5195 22.6454 12.2651 22.751 12 22.751C11.7349 22.751 11.4805 22.6454 11.293 22.458C11.1056 22.2706 11.0001 22.0161 11 21.751V12.1543C10.0376 11.9762 9.13788 11.5482 8.39648 10.9053C7.60005 10.2145 7.01826 9.30858 6.72168 8.29688C6.42522 7.28532 6.42627 6.20954 6.72363 5.19824C7.02107 4.1869 7.60249 3.28187 8.39941 2.5918C9.19638 1.90169 10.1752 1.45542 11.2188 1.30566ZM13.3398 3.5166C12.7004 3.25174 11.9962 3.18241 11.3174 3.31738C10.6386 3.4524 10.0148 3.78605 9.52539 4.27539C9.03599 4.76479 8.70247 5.38859 8.56738 6.06738C8.43233 6.74631 8.50169 7.45031 8.7666 8.08984C9.03151 8.72939 9.48009 9.27654 10.0557 9.66113C10.6312 10.0456 11.3079 10.251 12 10.251C12.4596 10.251 12.9152 10.1603 13.3398 9.98438C13.7643 9.80854 14.1497 9.55042 14.4746 9.22559C14.7996 8.90056 15.0576 8.51445 15.2334 8.08984C15.4092 7.66533 15.4999 7.21043 15.5 6.75098C15.5 6.05874 15.2947 5.38123 14.9102 4.80566C14.5256 4.2303 13.9792 3.78148 13.3398 3.5166Z" fill="#14345B" stroke="#14345B" stroke-width="0.5"/>
</svg>
