<svg width="1920" height="370" viewBox="0 0 1920 370" fill="none" xmlns="http://www.w3.org/2000/svg">
<g clip-path="url(#clip0_139_806)">
<path d="M236.372 374.919H-10.8201C-11.6067 374.919 -12 373.739 -12 371.378C-12 369.018 -11.6067 367.838 -10.8201 367.838C3.73222 367.838 14.5481 366.854 21.6276 364.887C28.7071 362.92 33.4268 358.986 35.7866 353.086C38.5398 347.185 39.9163 338.53 39.9163 327.122V53.9099C39.9163 42.5015 38.5398 34.0436 35.7866 28.5361C33.4268 22.6351 28.7071 18.7012 21.6276 16.7342C14.5481 14.3739 3.73222 13.1937 -10.8201 13.1937C-11.6067 13.1937 -12 12.0135 -12 9.65317C-12 7.29281 -11.6067 6.11264 -10.8201 6.11264H226.343C229.883 6.11264 231.653 7.8829 231.653 11.4234L232.833 84.0045C232.833 85.1847 231.653 85.9715 229.293 86.3649C227.326 86.3649 226.343 85.7748 226.343 84.5946C225.163 63.3514 218.674 47.0255 206.875 35.6171C195.469 24.2087 180.523 18.5045 162.038 18.5045H126.05C112.678 18.5045 102.452 19.488 95.3724 21.455C88.6862 23.4219 83.9665 27.1592 81.2134 32.6667C78.8536 38.1742 77.6736 46.2387 77.6736 56.8604V324.761C77.6736 334.989 78.8536 342.857 81.2134 348.365C83.9665 353.872 88.4895 357.61 94.7824 359.577C101.469 361.544 111.301 362.527 124.28 362.527H171.477C190.356 362.527 206.088 355.839 218.674 342.464C231.653 328.695 240.109 310.206 244.042 286.995C244.042 285.815 245.222 285.422 247.582 285.815C249.941 286.209 251.121 286.995 251.121 288.176C249.548 298.404 248.172 310.796 246.992 325.351C246.205 339.907 245.812 353.479 245.812 366.068C245.812 371.968 242.665 374.919 236.372 374.919ZM203.335 237.428C203.335 220.119 199.008 207.727 190.356 200.252C182.096 192.778 168.134 189.041 148.469 189.041H59.9749V176.649H150.238C169.117 176.649 182.49 173.501 190.356 167.207C198.615 160.52 202.745 149.898 202.745 135.342C202.745 134.556 203.925 134.162 206.285 134.162C208.644 134.162 209.824 134.556 209.824 135.342C209.824 147.144 209.628 156.389 209.234 163.077C209.234 169.371 209.234 176.059 209.234 183.14C209.234 192.188 209.431 201.039 209.824 209.694C210.218 218.348 210.414 227.593 210.414 237.428C210.414 238.215 209.234 238.608 206.875 238.608C204.515 238.608 203.335 238.215 203.335 237.428Z" fill="#E6EEF5"/>
<path d="M507.818 382C463.767 382 426.01 373.739 394.546 357.216C363.081 340.3 339.09 317.68 322.571 289.356C306.052 261.032 297.793 229.56 297.793 194.941C297.793 165.83 303.299 139.473 314.311 115.869C325.717 91.8724 341.449 71.2192 361.508 53.9099C381.96 36.6006 405.755 23.2252 432.893 13.7838C460.424 4.34234 490.316 -0.378376 522.567 -0.378376C541.052 -0.378376 559.144 1.3919 576.843 4.93244C594.542 8.47298 609.094 13.7838 620.5 20.8649C624.039 23.2252 626.006 25.1922 626.399 26.7658C626.793 28.3393 627.186 30.8964 627.579 34.4369L634.659 100.527C634.659 101.314 633.479 102.101 631.119 102.887C629.152 103.281 627.973 102.691 627.579 101.117C618.926 72.3994 603.391 50.5661 580.972 35.6171C558.554 20.2748 530.629 12.6036 497.198 12.6036C447.249 12.6036 408.705 27.1592 381.567 56.2703C354.822 84.988 341.449 124.131 341.449 173.698C341.449 212.644 349.316 247.066 365.048 276.964C380.78 306.468 402.215 329.679 429.353 346.595C456.491 363.511 487.366 371.968 521.977 371.968C541.249 371.968 556.588 370.198 567.993 366.658C579.399 363.117 587.659 356.233 592.772 346.004C597.885 335.776 600.441 320.631 600.441 300.568C600.441 281.685 599.261 267.916 596.901 259.261C594.542 250.213 588.642 244.312 579.203 241.559C569.763 238.805 554.621 237.428 533.776 237.428C531.416 237.428 530.236 235.854 530.236 232.707C530.236 229.56 531.219 227.986 533.186 227.986C557.964 229.56 580.579 230.544 601.031 230.937C621.483 230.937 642.918 230.347 665.336 229.167C667.303 229.167 668.286 230.544 668.286 233.297C668.286 236.051 667.303 237.428 665.336 237.428C656.29 237.035 649.604 238.411 645.278 241.559C641.345 244.312 638.788 250.607 637.608 260.441C636.429 270.276 635.839 285.619 635.839 306.468C635.839 319.45 636.232 329.089 637.019 335.383C637.805 341.677 638.395 346.398 638.788 349.545C639.575 352.299 639.968 355.249 639.968 358.396C639.968 360.757 639.575 362.33 638.788 363.117C638.002 363.904 636.232 364.691 633.479 365.477C613.42 370.198 592.378 374.132 570.353 377.279C548.721 380.426 527.876 382 507.818 382Z" fill="#E6EEF5"/>
<path d="M894.162 382C865.844 382 840.082 377.083 816.877 367.248C794.066 357.02 774.4 343.054 757.882 325.351C741.756 307.649 729.17 287.389 720.124 264.572C711.471 241.362 707.145 216.775 707.145 190.811C707.145 158.946 713.241 131.015 725.434 107.018C738.02 83.021 754.538 63.1547 774.99 47.4189C795.442 31.2898 817.861 19.2913 842.246 11.4234C866.63 3.55555 890.819 -0.378376 914.81 -0.378376C943.915 -0.378376 969.873 4.93244 992.685 15.5541C1015.89 25.7823 1035.56 39.7478 1051.68 57.4504C1067.81 75.1532 1080 95.2162 1088.26 117.64C1096.91 140.063 1101.24 163.077 1101.24 186.68C1101.24 214.218 1095.73 239.788 1084.72 263.392C1073.71 286.995 1058.56 307.649 1039.29 325.351C1020.41 343.054 998.388 357.02 973.216 367.248C948.438 377.083 922.087 382 894.162 382ZM914.81 369.608C941.555 369.608 965.547 363.314 986.785 350.725C1008.02 337.743 1024.94 318.86 1037.52 294.077C1050.11 269.293 1056.4 239.002 1056.4 203.203C1056.4 166.224 1049.52 133.572 1035.75 105.248C1022.38 76.53 1003.11 54.1066 977.936 37.9775C953.158 21.455 923.856 13.1937 890.032 13.1937C846.375 13.1937 812.354 27.3559 787.969 55.6802C763.978 83.6111 751.982 121.77 751.982 170.158C751.982 198.089 755.718 224.249 763.191 248.64C771.057 272.637 782.266 293.88 796.819 312.369C811.371 330.465 828.677 344.628 848.735 354.856C868.794 364.691 890.819 369.608 914.81 369.608Z" fill="#E6EEF5"/>
<path d="M1235.53 327.122C1235.53 338.53 1236.71 347.185 1239.07 353.086C1241.43 358.986 1246.15 362.92 1253.23 364.887C1260.7 366.854 1271.51 367.838 1285.67 367.838C1286.85 367.838 1287.44 369.018 1287.44 371.378C1287.44 373.739 1286.85 374.919 1285.67 374.919C1276.23 374.919 1265.61 374.722 1253.82 374.329C1242.41 373.935 1229.63 373.739 1215.47 373.739C1202.49 373.739 1189.9 373.935 1177.71 374.329C1165.91 374.722 1155.29 374.919 1145.85 374.919C1144.67 374.919 1144.08 373.739 1144.08 371.378C1144.08 369.018 1144.67 367.838 1145.85 367.838C1160.01 367.838 1170.83 366.854 1178.3 364.887C1185.77 362.92 1190.69 358.986 1193.05 353.086C1195.41 347.185 1196.59 338.53 1196.59 327.122V53.9099C1196.59 42.5015 1195.41 34.0436 1193.05 28.5361C1190.69 22.6351 1185.77 18.7012 1178.3 16.7342C1170.83 14.3739 1160.01 13.1937 1145.85 13.1937C1144.67 13.1937 1144.08 12.0135 1144.08 9.65317C1144.08 7.29281 1144.67 6.11264 1145.85 6.11264C1155.29 6.11264 1165.91 6.50602 1177.71 7.2928C1189.9 7.68619 1202.49 7.88289 1215.47 7.88289C1229.63 7.88289 1242.61 7.68619 1254.41 7.2928C1266.2 6.50602 1276.63 6.11264 1285.67 6.11264C1286.85 6.11264 1287.44 7.29281 1287.44 9.65317C1287.44 12.0135 1286.85 13.1937 1285.67 13.1937C1271.51 13.1937 1260.7 14.3739 1253.23 16.7342C1246.15 19.0946 1241.43 23.2252 1239.07 29.1261C1236.71 35.027 1235.53 43.6817 1235.53 55.0901V327.122Z" fill="#E6EEF5"/>
<path d="M1387.75 75.1532C1387.75 91.2823 1391.69 105.248 1399.55 117.05C1407.81 128.458 1418.24 138.489 1430.82 147.144C1443.41 155.799 1456.78 164.453 1470.94 173.108C1485.49 181.369 1499.45 190.221 1512.83 199.662C1526.59 209.104 1537.8 220.315 1546.45 233.297C1555.5 246.279 1560.02 262.212 1560.02 281.095C1560.02 299.977 1555.3 317.09 1545.86 332.432C1536.42 347.381 1522.66 359.38 1504.57 368.428C1486.87 377.476 1464.84 382 1438.49 382C1429.05 382 1419.61 381.213 1410.17 379.64C1401.13 378.459 1391.88 376.296 1382.44 373.149C1373.4 370.001 1364.35 366.068 1355.31 361.347C1353.34 360.167 1351.96 358.79 1351.18 357.216C1350.78 355.249 1350.39 352.889 1350 350.135L1342.33 269.883C1341.93 267.916 1342.72 266.932 1344.69 266.932C1347.05 266.539 1348.42 267.129 1348.82 268.703C1351.57 280.505 1355.5 292.503 1360.62 304.698C1365.73 316.893 1372.42 328.105 1380.67 338.333C1388.93 348.562 1398.96 356.823 1410.76 363.117C1422.56 369.411 1436.33 372.559 1452.06 372.559C1463.47 372.559 1474.48 370.395 1485.1 366.068C1496.11 361.74 1504.96 354.659 1511.65 344.824C1518.72 334.989 1522.26 321.614 1522.26 304.698C1522.26 285.422 1517.94 269.489 1509.29 256.901C1501.03 243.919 1490.41 232.707 1477.43 223.266C1464.45 213.824 1450.68 204.973 1436.13 196.712C1422.36 188.057 1408.99 179.206 1396.01 170.158C1383.43 161.11 1373.01 150.488 1364.75 138.293C1356.88 125.704 1352.95 110.165 1352.95 91.6757C1352.95 70.8258 1358.26 53.7132 1368.88 40.3378C1379.49 26.5691 1393.26 16.3408 1410.17 9.65317C1427.08 2.96547 1444.59 -0.378376 1462.68 -0.378376C1473.69 -0.378376 1485.1 0.801801 1496.9 3.16215C1508.7 5.12914 1520.3 8.66968 1531.7 13.7838C1534.85 14.964 1537.01 16.5375 1538.19 18.5045C1539.77 20.0781 1540.55 21.8484 1540.55 23.8153L1544.68 91.0856C1544.68 92.6592 1543.7 93.6426 1541.73 94.036C1539.77 94.036 1538.39 93.2493 1537.6 91.6757C1536.82 83.8078 1534.65 75.1532 1531.11 65.7117C1527.57 55.8769 1522.46 46.6321 1515.77 37.9775C1509.09 29.3228 1500.63 22.2417 1490.41 16.7342C1480.18 11.2267 1467.79 8.47297 1453.24 8.47297C1437.9 8.47297 1425.31 11.8168 1415.48 18.5045C1406.04 24.7988 1398.96 33.0601 1394.24 43.2883C1389.92 53.1231 1387.75 63.7448 1387.75 75.1532Z" fill="#E6EEF5"/>
<path d="M1691.12 16.7342C1666.73 16.7342 1648.25 23.0285 1635.66 35.6171C1623.47 48.2057 1614.62 69.6456 1609.11 99.9369C1609.11 100.724 1607.93 101.117 1605.57 101.117C1603.61 101.117 1602.62 100.724 1602.62 99.9369C1603.41 94.8228 1604.2 87.7417 1604.98 78.6937C1605.77 69.2523 1606.56 59.2207 1607.34 48.5991C1608.52 37.9775 1609.31 27.7493 1609.7 17.9144C1610.49 7.68619 1610.88 -0.57507 1610.88 -6.86935C1610.88 -8.83632 1611.87 -9.8198 1613.83 -9.8198C1616.19 -9.8198 1617.37 -8.83632 1617.37 -6.86935C1617.37 -2.93542 1619.34 0.015025 1623.27 1.98199C1627.2 3.55557 1631.53 4.73574 1636.25 5.52252C1641.36 5.91593 1645.69 6.11264 1649.23 6.11264C1683.05 7.2928 1722.58 7.88289 1767.81 7.88289C1795.74 7.88289 1817.76 7.68619 1833.89 7.2928C1850.41 6.50602 1866.33 6.11264 1881.67 6.11264C1895.05 6.11264 1905.27 5.32585 1912.35 3.75227C1919.82 1.78531 1924.54 -2.34533 1926.51 -8.63963C1926.9 -10.2132 1928.08 -11 1930.05 -11C1932.02 -11 1933 -10.2132 1933 -8.63963C1932.61 -2.73874 1932.02 5.32583 1931.23 15.5541C1930.44 25.7823 1929.85 36.4039 1929.46 47.4189C1929.07 58.4339 1928.67 68.6622 1928.28 78.1036C1927.89 87.545 1927.69 94.8228 1927.69 99.9369C1927.69 100.724 1926.51 101.117 1924.15 101.117C1921.79 101.117 1920.61 100.724 1920.61 99.9369C1919.43 69.2523 1913.14 47.8123 1901.73 35.6171C1890.33 23.0285 1871.45 16.7342 1845.1 16.7342C1828.58 16.7342 1816.19 17.521 1807.93 19.0946C1799.67 20.6682 1794.16 24.2087 1791.41 29.7162C1789.05 34.8303 1787.87 43.2883 1787.87 55.0901V327.122C1787.87 338.53 1789.25 347.185 1792 353.086C1794.75 358.986 1800.06 362.92 1807.93 364.887C1816.19 366.854 1828.58 367.838 1845.1 367.838C1846.28 367.838 1846.87 369.018 1846.87 371.378C1846.87 373.739 1846.28 374.919 1845.1 374.919C1834.87 374.919 1823.27 374.722 1810.29 374.329C1797.31 373.935 1783.15 373.739 1767.81 373.739C1753.26 373.739 1739.49 373.935 1726.51 374.329C1713.54 374.722 1701.74 374.919 1691.12 374.919C1690.33 374.919 1689.94 373.739 1689.94 371.378C1689.94 369.018 1690.33 367.838 1691.12 367.838C1707.24 367.838 1719.44 366.854 1727.69 364.887C1736.35 362.92 1742.05 358.986 1744.8 353.086C1747.56 347.185 1748.93 338.53 1748.93 327.122V53.9099C1748.93 42.1081 1747.56 33.6502 1744.8 28.5361C1742.05 23.0285 1736.54 19.6847 1728.28 18.5045C1720.02 17.3243 1707.64 16.7342 1691.12 16.7342Z" fill="#E6EEF5"/>
</g>
<defs>
<clipPath id="clip0_139_806">
<rect width="1920" height="370" fill="white"/>
</clipPath>
</defs>
</svg>
