<svg width="42" height="42" viewBox="0 0 42 42" fill="none" xmlns="http://www.w3.org/2000/svg">
<path d="M31.5 27.5C32.0523 27.5 32.5 27.9477 32.5 28.5C32.5 29.0523 32.0523 29.5 31.5 29.5H10.5C9.94772 29.5 9.5 29.0523 9.5 28.5C9.5 27.9477 9.94772 27.5 10.5 27.5H31.5ZM31.5 20C32.0523 20 32.5 20.4477 32.5 21C32.5 21.5523 32.0523 22 31.5 22H10.5C9.94772 22 9.5 21.5523 9.5 21C9.5 20.4477 9.94772 20 10.5 20H31.5ZM23.0195 12.5C23.069 13.2002 23.2206 13.8717 23.4609 14.5H10.5C9.94772 14.5 9.5 14.0523 9.5 13.5C9.5 12.9477 9.94772 12.5 10.5 12.5H23.0195ZM31.5 12.5C32.0523 12.5 32.5 12.9477 32.5 13.5C32.5 14.0523 32.0523 14.5 31.5 14.5H25.6709C25.324 13.9006 25.0962 13.2234 25.0244 12.5H31.5Z" fill="#14345B"/>
<circle cx="29.5" cy="12" r="5" fill="#F4892D"/>
</svg>
