<svg width="48" height="48" viewBox="0 0 48 48" fill="none" xmlns="http://www.w3.org/2000/svg">
<rect x="0.5" y="0.5" width="47" height="47" rx="23.5" stroke="#14345B"/>
<path d="M15.7316 27.168L23.3388 34.3737C23.6387 34.6578 23.7886 34.7998 23.9708 34.8104C23.9902 34.8116 24.0098 34.8116 24.0292 34.8104C24.2114 34.7998 24.3613 34.6578 24.6612 34.3737L32.2684 27.168C34.3883 25.16 34.6462 21.8739 32.8656 19.5597L32.5037 19.0895C30.3616 16.3055 26.0338 16.7698 24.531 19.9448C24.3189 20.393 23.6811 20.393 23.469 19.9448C21.9662 16.7698 17.6384 16.3055 15.4963 19.0895L15.1344 19.5597C13.3538 21.874 13.6117 25.16 15.7316 27.168Z" stroke="#14345B"/>
</svg>
