<svg width="21" height="42" viewBox="0 0 21 42" fill="none" xmlns="http://www.w3.org/2000/svg">
<path d="M21 10.5011C21.0003 8.48835 20.4219 6.51801 19.3341 4.82466C18.2463 3.13131 16.6944 1.78629 14.8639 0.949803C13.0333 0.113313 11.0008 -0.179418 9.00849 0.106473C7.01619 0.392373 5.14806 1.24485 3.62655 2.56242C2.10501 3.87996 0.994231 5.60703 0.426451 7.53798C-0.141329 9.46893 -0.142169 11.5224 0.424051 13.4538C0.990241 15.3852 2.09961 17.1132 3.62007 18.432C5.1405 19.7508 7.00794 20.6048 9 20.8923V40.5012C9 40.899 9.15804 41.2803 9.43935 41.5617C9.72063 41.8431 10.1022 42.0012 10.5 42.0012C10.8978 42.0012 11.2794 41.8431 11.5607 41.5617C11.842 41.2803 12 40.899 12 40.5012V20.8923C14.4974 20.5283 16.7805 19.2784 18.4329 17.3707C20.085 15.463 20.9961 13.0248 21 10.5011ZM10.5 18.0011C9.01665 18.0011 7.5666 17.5612 6.33321 16.7371C5.09985 15.913 4.13856 14.7416 3.5709 13.3712C3.00324 12.0008 2.85471 10.4927 3.14412 9.03789C3.4335 7.58304 4.1478 6.24666 5.19669 5.19777C6.24558 4.14888 7.58196 3.43455 9.03681 3.14517C10.4917 2.85579 11.9997 3.00432 13.3701 3.57195C14.7406 4.13961 15.9119 5.10093 16.7361 6.33429C17.5602 7.56765 18 9.0177 18 10.5011C18 11.486 17.8059 12.4613 17.4291 13.3712C17.0523 14.2811 16.4997 15.1079 15.8033 15.8044C15.1069 16.5008 14.2801 17.0533 13.3701 17.4302C12.4602 17.8071 11.4849 18.0011 10.5 18.0011Z" fill="#14345B"/>
</svg>
