<svg width="22" height="19" viewBox="0 0 22 19" fill="none" xmlns="http://www.w3.org/2000/svg">
<path d="M2.27849 10.4131L9.88569 17.6188C10.1856 17.9029 10.3355 18.0449 10.5177 18.0556C10.5371 18.0567 10.5566 18.0567 10.5761 18.0556C10.7582 18.0449 10.9082 17.9029 11.2081 17.6188L18.8153 10.4131C20.9352 8.40507 21.1931 5.11907 19.4124 2.80485L19.0506 2.33461C16.9085 -0.44937 12.5807 0.0149298 11.0779 3.18995C10.8657 3.63814 10.228 3.63814 10.0159 3.18995C8.51305 0.01493 4.18527 -0.449371 2.04314 2.33461L1.68131 2.80485C-0.0993669 5.11907 0.158556 8.40507 2.27849 10.4131Z" stroke="#F7F9FA"/>
</svg>
