<svg width="74" height="62" viewBox="0 0 74 62" fill="none" xmlns="http://www.w3.org/2000/svg">
<path d="M19.0388 62C13.1715 62 8.50162 60.0775 5.02913 56.2326C1.67637 52.2674 0 47.2209 0 41.093C0 31.2403 2.81392 22.7694 8.44175 15.6802C14.1893 8.59109 21.6731 3.36434 30.8932 0L33.4078 5.04651C25.8641 7.81008 19.7573 11.8353 15.0874 17.1221C10.5372 22.2888 8.26214 27.7558 8.26214 33.5233C8.26214 34.3643 8.50162 35.1454 8.98058 35.8663C9.57929 36.4671 10.3576 36.7674 11.3155 36.7674C12.2735 36.7674 13.7104 36.2868 15.6262 35.3256C17.7816 34.2442 19.8172 33.7035 21.733 33.7035C25.0858 33.7035 28.0194 34.845 30.534 37.1279C33.1683 39.4109 34.4854 42.595 34.4854 46.6802C34.4854 51.4864 32.9288 55.2713 29.8155 58.0349C26.7023 60.6783 23.11 62 19.0388 62ZM58.5534 62C52.6861 62 48.0162 60.0775 44.5437 56.2326C41.1909 52.2674 39.5146 47.2209 39.5146 41.093C39.5146 31.2403 42.3285 22.7694 47.9563 15.6802C53.7039 8.59109 61.1877 3.36434 70.4078 0L72.9223 5.04651C65.3786 7.81008 59.2718 11.8353 54.6019 17.1221C50.0518 22.2888 47.7767 27.7558 47.7767 33.5233C47.7767 34.3643 48.0162 35.1454 48.4951 35.8663C49.0938 36.4671 49.8722 36.7674 50.8301 36.7674C51.788 36.7674 53.2249 36.2868 55.1408 35.3256C57.2961 34.2442 59.3317 33.7035 61.2476 33.7035C64.6003 33.7035 67.534 34.845 70.0485 37.1279C72.6828 39.4109 74 42.595 74 46.6802C74 51.4864 72.4434 55.2713 69.3301 58.0349C66.2168 60.6783 62.6246 62 58.5534 62Z" fill="white"/>
</svg>
