<svg width="140" height="28" viewBox="0 0 140 28" fill="none" xmlns="http://www.w3.org/2000/svg">
<path d="M12.989 2.91361C13.287 1.99653 14.5844 1.99653 14.8824 2.91361L16.841 8.94153C16.9742 9.35166 17.3564 9.62934 17.7877 9.62934H24.1258C25.0901 9.62934 25.491 10.8633 24.7109 11.43L19.5832 15.1555C19.2344 15.409 19.0884 15.8583 19.2216 16.2684L21.1802 22.2963C21.4782 23.2134 20.4286 23.976 19.6485 23.4092L14.5208 19.6838C14.1719 19.4303 13.6995 19.4303 13.3506 19.6838L8.22297 23.4092C7.44286 23.976 6.39322 23.2134 6.6912 22.2963L8.64979 16.2684C8.78304 15.8583 8.63706 15.409 8.28818 15.1555L3.16053 11.43C2.38041 10.8633 2.78134 9.62934 3.74561 9.62934H10.0837C10.515 9.62934 10.8972 9.35166 11.0304 8.94153L12.989 2.91361Z" fill="#14345B"/>
<path d="M40.8601 2.91361C41.1581 1.99653 42.4555 1.99653 42.7535 2.91361L44.7121 8.94153C44.8453 9.35166 45.2275 9.62934 45.6588 9.62934H51.9969C52.9612 9.62934 53.3621 10.8633 52.582 11.43L47.4543 15.1555C47.1055 15.409 46.9595 15.8583 47.0927 16.2684L49.0513 22.2963C49.3493 23.2134 48.2997 23.976 47.5195 23.4092L42.3919 19.6838C42.043 19.4303 41.5706 19.4303 41.2217 19.6838L36.0941 23.4092C35.314 23.976 34.2643 23.2134 34.5623 22.2963L36.5209 16.2684C36.6541 15.8583 36.5082 15.409 36.1593 15.1555L31.0316 11.43C30.2515 10.8633 30.6524 9.62934 31.6167 9.62934H37.9548C38.3861 9.62934 38.7683 9.35166 38.9015 8.94153L40.8601 2.91361Z" fill="#14345B"/>
<path d="M68.7322 2.91361C69.0302 1.99653 70.3276 1.99653 70.6256 2.91361L72.5842 8.94153C72.7174 9.35166 73.0996 9.62934 73.5308 9.62934H79.869C80.8332 9.62934 81.2342 10.8633 80.4541 11.43L75.3264 15.1555C74.9775 15.409 74.8315 15.8583 74.9648 16.2684L76.9234 22.2963C77.2214 23.2134 76.1717 23.976 75.3916 23.4092L70.264 19.6838C69.9151 19.4303 69.4427 19.4303 69.0938 19.6838L63.9661 23.4092C63.186 23.976 62.1364 23.2134 62.4344 22.2963L64.3929 16.2684C64.5262 15.8583 64.3802 15.409 64.0313 15.1555L58.9037 11.43C58.1236 10.8633 58.5245 9.62934 59.4888 9.62934H65.8269C66.2581 9.62934 66.6403 9.35166 66.7736 8.94153L68.7322 2.91361Z" fill="#14345B"/>
<path d="M96.6033 2.91361C96.9013 1.99653 98.1987 1.99653 98.4967 2.91361L100.455 8.94153C100.589 9.35166 100.971 9.62934 101.402 9.62934H107.74C108.704 9.62934 109.105 10.8633 108.325 11.43L103.197 15.1555C102.849 15.409 102.703 15.8583 102.836 16.2684L104.794 22.2963C105.092 23.2134 104.043 23.976 103.263 23.4092L98.1351 19.6838C97.7862 19.4303 97.3138 19.4303 96.9649 19.6838L91.8372 23.4092C91.0571 23.976 90.0075 23.2134 90.3055 22.2963L92.264 16.2684C92.3973 15.8583 92.2513 15.409 91.9024 15.1555L86.7748 11.43C85.9947 10.8633 86.3956 9.62934 87.3599 9.62934H93.698C94.1292 9.62934 94.5114 9.35166 94.6447 8.94153L96.6033 2.91361Z" fill="#14345B"/>
<path d="M124.474 2.91361C124.772 1.99653 126.07 1.99653 126.368 2.91361L128.326 8.94153C128.46 9.35166 128.842 9.62934 129.273 9.62934H135.611C136.575 9.62934 136.976 10.8633 136.196 11.43L131.069 15.1555C130.72 15.409 130.574 15.8583 130.707 16.2684L132.666 22.2963C132.964 23.2134 131.914 23.976 131.134 23.4092L126.006 19.6838C125.657 19.4303 125.185 19.4303 124.836 19.6838L119.708 23.4092C118.928 23.976 117.879 23.2134 118.177 22.2963L120.135 16.2684C120.268 15.8583 120.122 15.409 119.774 15.1555L114.646 11.43C113.866 10.8633 114.267 9.62934 115.231 9.62934H121.569C122 9.62934 122.383 9.35166 122.516 8.94153L124.474 2.91361Z" fill="#14345B"/>
</svg>
