<svg width="48" height="48" viewBox="0 0 48 48" fill="none" xmlns="http://www.w3.org/2000/svg">
<path fill-rule="evenodd" clip-rule="evenodd" d="M16.0717 21.8019C13.6675 22.8516 11.1973 23.9302 8.93848 25.1744C7.759 26.038 9.32661 26.6489 10.7973 27.2219C11.0311 27.313 11.2624 27.4031 11.4799 27.4931C11.6609 27.5488 11.8449 27.6074 12.0314 27.6668C13.6671 28.1879 15.4909 28.769 17.0789 27.8949C19.6875 26.3964 22.1492 24.664 24.6091 22.9329C25.415 22.3657 26.2207 21.7987 27.0313 21.2401C27.0693 21.2158 27.1121 21.188 27.159 21.1577C27.8495 20.71 29.4026 19.7033 28.8281 21.0905C27.4697 22.5761 26.0146 23.8911 24.5517 25.2134C23.5657 26.1045 22.5761 26.9989 21.6101 27.9509C20.7688 28.6345 19.8951 30.0092 20.8372 30.9665C23.0071 32.4855 25.2109 33.9677 27.4134 35.4491C28.1301 35.9311 28.8468 36.4131 29.562 36.8963C30.7742 37.8641 32.6687 37.0812 32.9352 35.5689C33.0537 34.8732 33.1727 34.1776 33.2917 33.4819C33.9493 29.6372 34.6071 25.7911 35.1882 21.9339C35.2672 21.3288 35.3567 20.7238 35.4463 20.1185C35.6634 18.6514 35.8808 17.1825 35.9487 15.7075C35.7737 14.2355 33.9889 14.5592 32.9957 14.8902C27.8905 16.8328 22.8363 18.9194 17.8021 21.0428C17.2318 21.2954 16.6537 21.5478 16.0717 21.8019Z" fill="#14345B"/>
</svg>
