<svg width="44" height="30" viewBox="0 0 44 30" fill="none" xmlns="http://www.w3.org/2000/svg">
<path d="M43.029 4.6978C42.7766 3.78977 42.2843 2.96195 41.601 2.29678C40.9178 1.63161 40.0675 1.1523 39.1348 0.906593C35.7203 0 21.9777 0 21.9777 0C21.9777 0 8.23517 0.0274725 4.82069 0.934066C3.88799 1.17978 3.03769 1.65908 2.35445 2.32425C1.67121 2.98942 1.17888 3.81724 0.926497 4.72528C-0.106312 10.6319 -0.50702 19.6319 0.954716 25.3022C1.2071 26.2102 1.69943 27.0381 2.38267 27.7032C3.0659 28.3684 3.91621 28.8477 4.84891 29.0934C8.26339 30 22.006 30 22.006 30C22.006 30 35.7485 30 39.163 29.0934C40.0957 28.8477 40.946 28.3684 41.6293 27.7032C42.3125 27.0381 42.8048 26.2102 43.0572 25.3022C44.1465 19.3874 44.4823 10.3929 43.029 4.6978Z" fill="#FF0000"/>
<path d="M17.6953 21.5625L29.1736 15L17.6953 8.4375V21.5625Z" fill="white"/>
</svg>
